P3
3 2 # You need 6 triplets as its 3x2 = 6
255 # MAX value
255 0 0 # 1
0 255 0 # 2
0 0 255 # 3
0 0 0 # 4
0 0 0 # 5
0 0 0 # 6